HIERARCHY
ROOT Hips
{
	OFFSET -0.179506 -22.333345 2.821913
	CHANNELS 6 Xposition Yposition Zposition Zrotation Yrotation Xrotation 
	JOINT LeftUpLeg
	{
		OFFSET 6.951974 -9.140623 -0.681533
		CHANNELS 3 Zrotation Yrotation Xrotation
		JOINT LeftLeg
		{
			OFFSET 3.427654 -37.519855 -0.449580
			CHANNELS 3 Zrotation Yrotation Xrotation
			JOINT LeftFoot
			{
				OFFSET -1.359570 -39.796059 -4.369333
				CHANNELS 3 Zrotation Yrotation Xrotation
				JOINT LeftToe
				{
					OFFSET 2.635814 -5.579078 11.928840
					CHANNELS 3 Zrotation Yrotation Xrotation
					End Site
					{
						OFFSET 0.000000 0.000000 0.000000
					}
				}
			}
		}
	}
	JOINT RightUpLeg
	{
		OFFSET -6.767048 -9.052170 -0.431982
		CHANNELS 3 Zrotation Yrotation Xrotation
		JOINT RightLeg
		{
			OFFSET -3.829005 -38.256897 -0.885003
			CHANNELS 3 Zrotation Yrotation Xrotation
			JOINT RightFoot
			{
				OFFSET 1.577377 -39.841461 -4.231180
				CHANNELS 3 Zrotation Yrotation Xrotation
				JOINT RightToe
				{
					OFFSET -2.537174 -4.814398 12.334795
					CHANNELS 3 Zrotation Yrotation Xrotation
					End Site
					{
						OFFSET 0.000000 0.000000 0.000000
					}
				}
			}
		}
	}
	JOINT Spine
	{
		OFFSET -0.253288 10.896323 -2.669631
		CHANNELS 3 Zrotation Yrotation Xrotation
		JOINT Spine1
		{
			OFFSET 0.548704 13.518043 0.109247
			CHANNELS 3 Zrotation Yrotation Xrotation
			JOINT Spine2
			{
				OFFSET 0.145701 5.292222 2.542457
				CHANNELS 3 Zrotation Yrotation Xrotation
				JOINT Neck
				{
					OFFSET -0.277840 21.387037 -4.285703
					CHANNELS 3 Zrotation Yrotation Xrotation
					JOINT Head
					{
						OFFSET 0.515184 6.496960 5.134897
						CHANNELS 3 Zrotation Yrotation Xrotation
						End Site
						{
							OFFSET 0.000000 0.000000 0.000000
						}
					}
				}
				JOINT LeftShoulder
				{
					OFFSET 7.884473 12.174932 -3.408961
					CHANNELS 3 Zrotation Yrotation Xrotation
					JOINT LeftArm
					{
						OFFSET 9.097692 3.046888 -0.886815
						CHANNELS 3 Zrotation Yrotation Xrotation
						JOINT LeftForeArm
						{
							OFFSET 25.961220 -1.277207 -2.745643
							CHANNELS 3 Zrotation Yrotation Xrotation
							JOINT LeftHand
							{
								OFFSET 24.923361 0.898606 -0.117091
								CHANNELS 3 Zrotation Yrotation Xrotation
								End Site
								{
									OFFSET 0.000000 0.000000 0.000000
								}
							}
						}
					}
				}
				JOINT RightShoulder
				{
					OFFSET -8.175920 11.883285 -3.861528
					CHANNELS 3 Zrotation Yrotation Xrotation
					JOINT RightArm
					{
						OFFSET -9.601238 3.255117 -0.914307
						CHANNELS 3 Zrotation Yrotation Xrotation
						JOINT RightForeArm
						{
							OFFSET -25.374195 -1.332924 -2.140099
							CHANNELS 3 Zrotation Yrotation Xrotation
							JOINT RightHand
							{
								OFFSET -25.529810 0.777228 -0.555919
								CHANNELS 3 Zrotation Yrotation Xrotation
								End Site
								{
									OFFSET 0.000000 0.000000 0.000000
								}
							}
						}
					}
				}
			}
		}
	}
}
MOTION
Frames: 10
Frame Time: 0.033333
-174.998856 -180.807968 98.855179 -131.840031 3.767720 87.497345 2.424324 -1.267411 3.303854 1.220561 -8.364851 0.802987 -6.908735 5.357861 -3.290468 nan nan nan 4.240606 -5.174347 2.435568 -0.457878 -9.607329 1.331757 9.884739 -5.567250 0.212177 nan nan nan -3.946977 3.068316 8.565161 0.412572 -1.705611 -1.652545 1.377041 -0.973434 2.249017 7.383735 -11.507243 -6.412733 11.810571 -15.583824 -3.014287 -15.748030 8.682612 0.162419 -63.550976 -8.204501 13.410123 -0.497025 -28.584105 1.729063 0.908804 -17.093423 -33.813052 14.321502 -6.972836 -2.948963 66.277587 1.014204 14.951662 -3.124362 32.332337 3.652885 8.875754 11.236190 -21.416700 
-174.955200 -180.866821 98.908791 -132.032365 3.677223 88.320191 2.192584 -2.066666 2.342325 1.327642 -7.735893 0.976349 -7.047454 5.760390 -3.318983 nan nan nan 4.145793 -4.663122 0.778756 -0.487538 -9.735625 2.746766 10.175117 -5.484237 -0.427539 nan nan nan -4.307270 3.180390 7.740635 0.415727 -1.482352 -1.597790 1.353784 -0.929973 2.140572 7.735287 -11.468647 -6.372653 11.995900 -15.677861 -3.415946 -15.836465 8.755732 0.162389 -63.414780 -8.043457 13.859939 -0.119431 -28.611120 1.088656 1.663200 -17.193786 -33.518195 14.422644 -7.273520 -2.846900 66.157031 1.042718 15.094291 -3.149126 32.539373 3.684724 8.479696 11.901500 -21.349646 
-174.858658 -180.870834 98.945061 -131.884828 3.769235 88.606783 2.458054 -1.472099 1.795060 1.159022 -8.170488 1.262020 -7.074094 5.280305 -3.090267 nan nan nan 4.258840 -4.550127 -0.118199 -0.500486 -9.879198 3.848373 10.106204 -5.488137 -0.842139 nan nan nan -4.606134 3.001680 7.694826 0.476100 -1.366664 -1.778901 1.426428 -0.960615 2.238953 8.119490 -11.314646 -6.965881 12.076548 -15.936580 -3.222278 -15.890886 8.944644 0.196433 -63.234073 -8.161220 13.545410 -0.008303 -28.520944 0.667034 0.322827 -17.750026 -32.840111 14.527333 -7.336615 -2.855788 66.136532 1.108716 15.028735 -3.375484 32.778745 3.731799 9.381759 12.682927 -21.102548 
-174.752075 -180.840973 99.000549 -131.822446 3.893990 88.897217 2.856783 -0.465183 1.286406 0.862962 -8.930896 1.492496 -7.278096 4.550878 -2.622236 nan nan nan 4.454135 -4.531106 -1.105780 -0.601418 -10.001939 5.104458 9.988927 -5.461680 -1.168266 nan nan nan -4.975996 2.782481 7.604886 0.564242 -1.170092 -1.843185 1.563155 -0.983741 2.140878 8.463346 -11.248381 -7.508479 11.993057 -16.040610 -2.880816 -15.867189 9.168668 0.305959 -63.060889 -8.161822 13.286151 -0.020960 -28.597597 0.467046 -0.447082 -18.303132 -32.619933 14.440517 -7.396098 -2.869444 66.202560 1.103574 15.064679 -3.411061 32.808552 3.920236 10.280768 13.243887 -21.174831 
-174.735611 -180.800369 99.053650 -132.032068 3.982027 88.795551 3.051408 -0.500984 1.369858 0.641833 -8.915785 1.703851 -7.471186 4.556111 -2.696598 nan nan nan 4.469734 -4.362583 -1.562882 -0.537006 -9.971228 6.200439 9.881862 -5.450260 -1.469247 nan nan nan -5.152129 2.834747 7.893467 0.551833 -1.057373 -1.863885 1.609775 -0.919781 2.049486 8.849959 -11.038759 -8.047717 12.004789 -16.106865 -2.855875 -15.725411 9.305491 0.253979 -62.985005 -7.948404 13.233121 -0.174952 -28.660356 0.586235 -0.159053 -18.404997 -32.921785 14.205973 -7.437326 -2.862250 66.318638 1.105319 15.131785 -3.274096 32.770065 4.125053 9.910000 13.193583 -21.348428 
-174.540848 -180.958847 99.132469 -131.424464 3.985792 89.597157 3.489401 2.284468 -0.578789 -0.081233 -10.556118 3.073449 -7.465225 3.135192 -2.954035 nan nan nan 4.337176 -4.596207 -3.306574 -0.315963 -10.188373 7.671691 9.469535 -5.439128 -1.791672 nan nan nan -5.561774 2.029435 7.691729 0.638905 -0.982133 -2.029289 1.690468 -0.841128 1.787762 9.051760 -11.217739 -8.150821 12.211710 -15.737551 -3.142192 -15.762955 9.283988 0.447141 -62.558117 -7.796101 13.059935 -0.566034 -28.765730 1.343524 0.806180 -17.390309 -33.438685 14.187648 -7.332480 -2.707187 66.123240 1.148914 14.961436 -3.039140 32.834101 4.358796 9.468977 13.198418 -21.534456 
-174.437424 -180.950485 99.161903 -131.579802 4.142032 89.610006 3.720661 2.102165 -0.748455 -0.143146 -10.378832 3.307304 -7.158996 3.477228 -3.165119 nan nan nan 4.419175 -4.333371 -3.984132 -0.205219 -10.092587 8.822639 9.307253 -5.472274 -1.993613 nan nan nan -5.651532 2.039092 7.762882 0.655553 -0.851930 -1.963389 1.652062 -0.843270 1.903029 9.296798 -10.997661 -8.536214 12.364751 -15.769471 -3.246910 -15.689261 9.184143 0.394539 -62.328486 -7.694891 13.090955 -0.615789 -28.809569 1.190322 0.850064 -17.006315 -33.521739 14.182057 -7.149156 -2.608594 66.163607 1.334280 15.042066 -3.207882 32.943493 4.154917 9.445776 12.997632 -21.591645 
-174.413361 -180.825974 99.200951 -132.166971 4.439484 89.154863 3.909428 -0.551054 0.304330 0.080875 -8.871299 2.750201 -6.791437 5.081661 -3.363566 nan nan nan 4.614149 -3.641240 -3.861991 0.067559 -9.842119 9.542288 9.370746 -5.633616 -2.198368 nan nan nan -5.521542 2.611781 8.035019 0.659771 -0.763035 -1.901930 1.520383 -0.934968 2.269922 9.696335 -10.428922 -9.253545 12.522031 -16.170818 -3.213347 -15.588529 9.085148 0.181415 -62.207608 -7.470102 13.327929 -0.305465 -28.897642 0.293108 0.486740 -17.032913 -33.165844 14.275923 -7.006971 -2.609550 66.173829 1.494945 15.320953 -3.474040 33.089140 3.662140 9.277132 12.599443 -21.723727 
-174.386597 -180.705765 99.227547 -132.534845 4.772751 88.802339 4.222234 -2.324328 0.954120 0.102602 -7.774754 2.584462 -6.770968 6.040898 -3.605883 nan nan nan 4.812160 -3.312063 -3.864472 0.345993 -9.865884 10.195186 9.499313 -5.414845 -2.129965 nan nan nan -5.476294 3.046241 8.780443 0.705876 -0.765285 -2.231834 1.623192 -0.927973 2.269231 9.914547 -10.071186 -9.824925 12.618570 -16.410426 -3.215420 -15.478843 9.189631 0.043750 -62.268848 -7.247211 13.326821 -0.220273 -28.740849 0.067365 0.263817 -17.323878 -32.891579 14.139181 -7.214340 -3.011369 66.226007 1.208800 15.367543 -3.237981 33.155698 3.890902 8.735901 12.625948 -22.000064 
-174.304138 -180.677200 99.265839 -132.463693 4.959111 88.878396 4.580146 -2.178244 0.640541 -0.100836 -7.851658 2.935998 -6.844507 5.923487 -3.676879 nan nan nan 4.776145 -3.453595 -4.434251 0.732343 -9.821558 10.918890 9.415375 -5.095623 -1.965643 nan nan nan -5.381705 2.967756 8.662477 0.692722 -0.826184 -2.011771 1.468972 -0.980010 2.429154 10.097394 -9.754819 -10.062378 12.806933 -16.488300 -3.579095 -15.463559 8.983485 0.060732 -61.977866 -7.269200 13.236095 -0.156573 -28.563968 -0.149159 0.544368 -17.329092 -32.911025 14.225602 -6.953440 -2.697722 66.273627 1.682288 15.336464 -3.449547 33.043438 3.692839 8.310620 12.801784 -22.142344 
